<?xml version="1.0" standalone="no"?>
<!DOCTYPE svg PUBLIC "-//W3C//DTD SVG 20010904//EN"
 "http://www.w3.org/TR/2001/REC-SVG-20010904/DTD/svg10.dtd">
<svg version="1.0" xmlns="http://www.w3.org/2000/svg"
 width="779.000000pt" height="779.000000pt" viewBox="0 0 779.000000 779.000000"
 preserveAspectRatio="xMidYMid meet">
<metadata>
Created by potrace 1.11, written by Peter Selinger 2001-2013
</metadata>
<g transform="translate(0.000000,779.000000) scale(0.100000,-0.100000)"
fill="#000000" stroke="none">
<path d="M4745 4939 c-29 -10 -50 -14 -98 -22 -12 -2 -31 -7 -42 -10 -11 -3
-40 -9 -64 -12 -23 -4 -53 -10 -66 -15 -13 -5 -26 -6 -29 -3 -3 3 -13 0 -22
-8 -10 -8 -20 -13 -23 -11 -3 1 -7 -9 -9 -24 -2 -17 0 -24 7 -19 6 3 11 1 11
-4 0 -6 6 -11 13 -11 25 0 69 -45 70 -73 1 -15 4 -27 7 -27 3 0 5 -18 6 -40 0
-21 -3 -37 -8 -33 -5 3 -4 -5 4 -16 11 -18 11 -23 -2 -31 -10 -6 -11 -10 -2
-10 6 0 12 -7 12 -16 0 -8 -5 -12 -11 -8 -8 4 -8 1 -2 -12 12 -24 11 -994 -1
-1013 -6 -9 -5 -12 0 -8 6 3 10 -25 9 -69 0 -41 -3 -74 -7 -74 -4 0 -5 -7 -2
-15 4 -8 1 -15 -5 -15 -6 0 -8 -7 -4 -15 3 -10 -9 -29 -36 -54 -22 -21 -41
-46 -41 -55 0 -11 5 -14 12 -10 8 5 9 1 5 -12 -7 -18 -7 -18 8 0 11 14 15 16
15 5 0 -8 3 -10 8 -4 4 6 24 10 45 11 33 1 38 -2 34 -18 -3 -10 -1 -16 4 -12
5 3 9 11 9 17 0 7 14 13 30 14 17 1 30 -3 30 -9 0 -9 3 -9 12 0 9 9 14 7 25
-6 10 -13 12 -14 8 -2 -4 13 2 16 29 16 19 0 33 -3 30 -7 -2 -4 0 -11 6 -14 6
-4 9 -1 8 6 -2 8 7 14 22 14 36 2 43 -4 28 -23 -12 -15 -11 -16 4 -3 10 7 15
17 12 22 -3 5 0 9 5 9 6 0 11 -8 11 -17 1 -17 1 -17 11 0 6 9 15 15 20 11 6
-4 6 -10 -1 -19 -8 -10 -8 -15 1 -21 7 -4 9 -3 5 4 -3 6 -2 13 4 17 6 4 8 11
4 16 -3 6 4 7 20 3 21 -5 26 -3 26 12 0 23 -9 36 -35 50 -41 22 -57 79 -59
208 -1 67 -5 126 -8 132 -4 6 -4 14 0 18 12 12 9 756 -3 756 -7 0 -7 3 1 8 5
4 10 30 10 57 0 28 -5 53 -10 57 -8 5 -8 8 -1 8 7 0 11 49 10 140 0 87 4 140
10 140 6 0 5 3 -1 8 -6 4 -10 21 -9 37 1 17 -2 38 -8 49 -6 12 -6 16 1 12 6
-3 9 4 8 18 0 13 -4 22 -8 19 -5 -2 -8 1 -8 6 0 13 -5 13 -45 0z"/>
<path d="M2568 4855 c-2 -3 -70 -5 -150 -6 -108 0 -148 -4 -151 -13 -9 -22 6
-32 45 -33 45 0 71 -10 63 -22 -3 -5 0 -13 6 -17 8 -4 9 -3 5 4 -4 7 0 12 10
12 10 0 14 -3 11 -7 -4 -3 1 -11 10 -18 8 -6 16 -26 17 -43 0 -18 5 -32 10
-32 5 0 3 -7 -4 -16 -11 -12 -11 -15 -1 -12 8 2 15 -5 16 -14 2 -11 -2 -15
-13 -12 -16 5 -16 5 -1 -5 10 -6 15 -21 13 -38 -1 -15 1 -34 6 -44 5 -9 6 -19
3 -23 -11 -10 -12 -56 -2 -56 6 0 7 -6 2 -12 -13 -21 -13 -42 0 -50 9 -6 8 -8
-2 -8 -10 0 -11 -3 -2 -14 8 -9 8 -16 2 -20 -6 -4 -6 -18 -1 -36 5 -19 5 -28
-1 -25 -11 8 -11 3 0 -28 6 -14 7 -28 4 -31 -8 -7 -7 -105 1 -113 9 -9 7 -25
-3 -19 -4 3 -6 -7 -4 -22 6 -41 6 -46 -2 -64 -5 -12 -3 -18 6 -18 11 0 11 -3
-1 -10 -10 -6 -11 -10 -3 -10 9 0 10 -7 2 -27 -7 -20 -6 -28 3 -35 10 -6 10
-8 -1 -8 -10 0 -11 -3 -2 -13 6 -8 8 -17 4 -21 -11 -11 -9 -50 2 -58 6 -5 5
-8 -2 -8 -9 0 -10 -7 -3 -24 5 -13 6 -26 3 -29 -8 -9 -9 -117 0 -117 5 0 6 -4
2 -9 -11 -19 -12 -71 -1 -71 7 0 8 -3 1 -8 -6 -4 -10 -16 -10 -27 0 -11 -3
-32 -7 -47 -4 -19 -3 -28 5 -28 8 0 8 -3 2 -8 -9 -7 -14 -27 -16 -80 -1 -12
-5 -25 -10 -28 -4 -2 -6 -11 -3 -19 3 -8 2 -20 -2 -27 -9 -13 -13 -29 -16 -60
-1 -10 -6 -18 -10 -18 -4 0 -8 -6 -8 -14 0 -14 -26 -74 -57 -130 -28 -51 -136
-150 -197 -180 -53 -26 -76 -49 -63 -62 10 -10 94 -9 91 1 -5 13 49 14 58 0 5
-6 8 -4 8 6 0 15 5 17 50 21 11 1 20 6 20 10 0 4 3 7 8 6 4 -1 24 6 46 15 21
9 42 17 47 17 5 0 9 6 9 13 0 8 4 7 10 -3 6 -10 10 -11 10 -2 0 6 5 12 11 12
5 0 7 -5 3 -12 -5 -7 -3 -8 5 -4 7 5 10 10 7 13 -14 14 45 48 75 45 4 -1 6 4
5 11 0 7 4 12 9 12 6 0 9 -4 7 -8 -1 -5 2 -6 7 -2 6 3 8 12 5 19 -8 21 14 30
34 14 15 -11 15 -11 5 2 -10 13 -5 24 26 59 27 30 43 41 52 35 12 -6 12 -5 0
9 -9 12 -10 17 -2 17 7 0 9 5 6 10 -3 6 -2 10 2 10 9 0 38 53 48 88 3 12 11
22 16 22 5 0 8 3 8 8 -1 4 0 9 1 12 1 3 4 14 6 25 8 34 12 50 14 50 1 0 4 11
6 24 2 14 12 34 22 45 16 20 16 20 -2 6 -11 -8 -17 -10 -14 -5 9 16 19 87 20
154 1 36 5 58 11 54 6 -4 7 -1 1 8 -13 21 -14 210 -1 202 6 -4 7 -1 1 8 -13
21 -14 240 -1 232 6 -4 7 -1 1 8 -13 21 -13 311 0 328 8 11 8 13 -1 7 -9 -5
-13 0 -13 13 0 12 6 21 13 21 8 0 8 3 2 8 -10 6 -13 80 -5 107 1 6 1 15 0 20
-7 32 -6 56 2 61 4 3 6 10 3 15 -4 5 -1 9 4 9 6 0 11 -5 11 -12 0 -6 3 -8 6
-5 4 4 2 13 -4 20 -9 10 -7 19 5 38 25 35 40 49 47 42 3 -4 6 -1 6 5 0 10 28
24 40 20 3 -1 14 4 26 10 16 8 24 8 34 -1 9 -8 11 -9 6 0 -3 6 -1 13 6 15 7 3
9 12 5 22 -6 15 -20 17 -132 14 -69 -2 -125 -1 -125 2 0 3 -34 3 -76 0 -41 -3
-83 -2 -94 2 -10 4 -20 5 -22 3z"/>
<path d="M4413 4775 c0 -8 4 -12 9 -9 5 3 6 10 3 15 -9 13 -12 11 -12 -6z"/>
<path d="M2916 4772 c-3 -5 1 -9 9 -9 8 0 12 4 9 9 -3 4 -7 8 -9 8 -2 0 -6 -4
-9 -8z"/>
<path d="M2395 4739 c-4 -6 -5 -12 -2 -15 2 -3 7 2 10 11 7 17 1 20 -8 4z"/>
<path d="M1205 4434 c-49 -23 -155 -73 -235 -109 -80 -37 -179 -83 -220 -102
-41 -19 -100 -46 -130 -60 -139 -64 -298 -137 -402 -186 l-114 -54 1 -99 c0
-55 -4 -105 -10 -113 -7 -11 -7 -13 1 -8 6 3 42 -9 80 -27 38 -18 84 -39 102
-47 17 -8 32 -18 32 -22 0 -5 4 -6 9 -2 5 3 16 -2 25 -10 8 -9 19 -15 23 -15
13 1 138 -53 141 -62 2 -4 9 -8 15 -8 7 0 40 -13 73 -30 33 -16 73 -34 87 -39
15 -6 27 -14 27 -18 0 -5 12 -9 26 -9 14 -1 36 -11 48 -23 12 -12 25 -19 28
-16 7 8 58 -16 58 -27 0 -5 5 -6 10 -3 6 3 10 1 10 -5 0 -6 4 -9 9 -6 10 7 68
-20 95 -43 10 -9 19 -14 20 -12 0 2 11 1 24 -3 12 -4 20 -11 17 -16 -3 -5 0
-12 6 -16 8 -5 9 -3 4 5 -5 9 -2 12 11 9 11 -2 18 -9 17 -16 -2 -6 3 -9 10 -6
17 6 87 -23 87 -37 0 -5 5 -7 10 -4 6 3 10 1 10 -6 0 -7 3 -10 6 -6 4 3 22 0
41 -8 20 -8 38 -15 42 -15 4 0 6 60 5 133 -2 160 -2 157 -14 157 -6 0 -29 9
-53 19 -23 11 -206 86 -407 166 -201 81 -382 155 -403 163 l-38 15 32 14 c40
17 42 16 35 -3 -3 -8 -2 -12 4 -9 6 3 10 12 10 20 0 16 35 29 51 19 7 -4 9 -3
6 3 -6 10 73 46 100 46 7 0 13 5 13 10 0 5 7 4 15 -3 13 -11 14 -10 9 5 -6 16
-3 17 22 11 18 -4 24 -3 16 2 -11 8 -11 10 2 15 9 4 23 3 33 0 10 -4 14 -2 10
4 -4 6 0 13 8 17 8 3 19 -3 25 -12 9 -14 10 -14 5 6 -6 21 6 28 38 23 4 0 7 4
7 10 0 6 7 8 16 5 8 -3 12 -2 9 4 -5 9 8 12 31 9 4 0 10 5 14 11 4 7 19 13 33
13 14 1 23 5 20 10 -2 4 4 7 14 7 11 0 24 5 30 11 6 6 17 12 24 13 8 1 32 10
53 20 22 9 46 14 53 11 8 -2 11 -1 8 4 -5 9 32 27 48 23 4 -1 7 3 7 8 0 6 3 9
8 8 4 0 30 9 57 21 l51 22 -1 139 c-1 77 -3 141 -6 143 -2 2 -44 -15 -94 -39z"/>
<path d="M6419 4472 c-1 -4 -2 -67 -3 -140 l-1 -132 57 -23 c32 -12 58 -26 58
-30 0 -5 5 -5 10 -2 6 4 17 1 25 -5 8 -7 15 -9 15 -6 0 4 9 2 20 -4 12 -6 18
-16 14 -23 -5 -9 -4 -9 6 0 8 7 19 8 29 3 33 -17 87 -39 114 -45 25 -7 32 -16
28 -38 -1 -5 3 -6 9 -2 6 3 8 10 5 15 -3 4 4 6 15 3 11 -3 25 -14 31 -25 8
-15 13 -17 25 -7 8 6 14 7 14 2 0 -5 10 -9 22 -10 11 -1 24 -6 27 -10 3 -4 13
-9 21 -11 8 -2 17 -8 18 -13 2 -5 8 -7 12 -4 8 5 48 -8 115 -35 11 -5 28 -11
38 -14 10 -3 15 -10 12 -16 -3 -6 1 -7 10 -4 9 4 26 2 38 -4 12 -5 30 -13 40
-16 9 -3 17 -10 17 -15 0 -6 -8 -8 -17 -5 -15 5 -16 4 -3 -5 11 -8 18 -7 25 3
12 15 38 9 28 -7 -4 -6 0 -8 9 -4 9 3 27 -1 41 -8 14 -7 29 -10 33 -7 4 4 4 1
0 -6 -4 -7 -15 -12 -24 -10 -10 2 -21 -1 -27 -8 -5 -6 -89 -41 -185 -79 -96
-37 -194 -76 -217 -86 -23 -11 -45 -19 -48 -19 -4 0 -21 -6 -38 -14 -18 -8
-115 -47 -217 -87 -102 -39 -189 -76 -195 -81 -13 -12 -14 -278 0 -278 5 0 37
14 70 30 32 16 63 26 67 24 4 -3 8 0 8 5 0 6 5 11 11 11 5 0 35 11 65 25 31
14 60 22 66 19 6 -4 8 -2 4 4 -3 6 13 17 41 28 27 10 53 22 60 27 7 5 18 5 24
1 7 -4 9 -3 6 3 -4 6 0 14 9 17 10 4 13 2 8 -7 -4 -7 1 -6 12 3 25 20 80 50
91 50 4 0 1 -5 -7 -10 -9 -6 -10 -10 -3 -10 7 0 16 6 20 13 13 19 60 40 74 32
7 -5 10 -4 6 2 -3 5 13 18 36 28 23 10 67 29 97 43 30 13 71 31 90 40 19 8 40
18 45 21 7 3 7 0 0 -10 -7 -10 -5 -10 5 1 18 19 50 34 68 31 6 -1 12 3 12 8 0
10 39 27 53 23 4 -1 7 3 7 9 0 5 4 8 9 4 5 -3 13 0 16 6 4 5 14 8 22 5 8 -3
12 -2 9 3 -3 5 27 22 67 38 l72 29 2 110 2 110 -517 228 c-284 126 -565 251
-624 277 -60 26 -109 45 -109 41z"/>
<path d="M3850 4297 c-25 -5 -48 -14 -52 -21 -4 -6 -8 -8 -8 -3 0 13 -104 -50
-148 -90 -25 -23 -24 -51 4 -74 13 -10 17 -10 24 0 4 8 13 10 20 6 8 -5 11 -4
6 3 -4 6 3 12 16 14 28 4 110 -9 117 -20 4 -4 14 -11 24 -17 10 -5 17 -13 15
-17 -2 -4 7 -15 20 -23 12 -9 20 -21 17 -26 -4 -5 -2 -9 4 -9 5 0 8 -8 6 -17
-1 -10 0 -22 3 -28 10 -17 9 -45 -2 -45 -6 0 -5 -4 2 -9 8 -4 14 -12 14 -16 0
-4 -6 -12 -14 -16 -7 -5 -8 -9 -2 -9 11 0 13 -89 2 -106 -4 -6 -4 -14 0 -18
11 -12 9 -86 -3 -86 -7 0 -7 -3 0 -8 14 -10 16 -84 2 -75 -6 4 -7 1 -1 -8 10
-16 13 -179 3 -179 -3 0 -5 -12 -4 -27 1 -16 -1 -32 -4 -38 -3 -5 -6 -16 -7
-23 -2 -8 -19 -28 -38 -46 -45 -40 -47 -63 -6 -61 17 1 30 -2 30 -7 0 -5 5 -6
12 -2 17 11 148 13 148 2 0 -5 5 -6 12 -2 6 4 24 8 40 8 21 1 27 -3 23 -14 -4
-13 -4 -13 7 0 15 18 78 25 78 9 0 -8 4 -9 13 0 19 15 30 1 14 -18 -11 -14
-10 -14 5 -2 10 7 16 17 13 21 -3 5 14 6 36 4 32 -3 39 -1 31 9 -10 12 -12 18
-12 37 0 5 -3 9 -7 8 -5 -2 -19 5 -33 15 -13 9 -21 17 -16 17 5 0 3 6 -3 13
-6 8 -8 17 -4 20 3 4 1 7 -5 7 -6 0 -11 8 -11 18 -1 9 -3 171 -4 359 -2 189
-6 346 -10 350 -4 3 -7 18 -7 33 0 33 -42 122 -71 149 -22 20 -82 52 -109 58
-39 9 -139 9 -180 0z"/>
<path d="M3448 4286 c-26 -7 -50 -11 -53 -8 -3 3 -5 0 -5 -7 0 -7 -4 -9 -10
-6 -5 3 -35 -1 -67 -9 -32 -8 -74 -18 -93 -21 -19 -4 -39 -8 -45 -9 -5 -1 -16
-5 -22 -9 -7 -5 -13 -5 -13 0 0 4 -4 2 -9 -6 -12 -18 -2 -51 15 -51 8 0 14 -5
14 -10 0 -6 12 -15 26 -20 14 -6 28 -19 31 -30 3 -11 9 -17 14 -14 5 3 6 -2 3
-10 -4 -10 -1 -16 7 -16 11 0 11 -3 -1 -10 -11 -7 -11 -10 -2 -10 17 0 11 -31
-8 -48 -13 -10 -13 -12 0 -10 11 2 14 -11 15 -64 0 -40 -4 -68 -10 -68 -7 0
-7 -3 0 -8 14 -10 17 -65 3 -56 -7 5 -8 2 -3 -7 14 -21 14 -120 1 -112 -7 4
-6 1 1 -8 7 -9 8 -20 3 -29 -5 -8 -6 -19 -2 -24 11 -19 11 -67 0 -60 -7 5 -8
2 -2 -7 9 -15 13 -129 4 -129 -3 0 -6 -21 -8 -46 -3 -56 -15 -80 -50 -102 -15
-9 -28 -27 -30 -39 -3 -21 0 -22 62 -19 36 2 63 0 61 -5 -3 -4 -1 -11 5 -14 6
-4 9 -1 8 6 -4 16 41 19 61 5 11 -8 13 -8 7 2 -4 6 -2 12 3 12 6 0 11 -7 11
-15 0 -8 4 -15 10 -15 5 0 9 3 9 8 -3 20 3 23 18 11 11 -10 14 -10 9 -1 -5 8
-1 11 16 8 13 -2 22 -10 20 -17 -2 -11 1 -10 10 1 7 8 30 16 50 16 29 1 35 -2
31 -15 -4 -13 -3 -14 5 -2 7 10 27 15 57 14 36 -1 44 1 36 11 -6 7 -8 15 -5
18 3 3 -9 16 -26 28 -28 20 -44 45 -57 90 -3 8 -5 53 -6 100 -1 47 -6 88 -12
92 -6 5 -5 8 3 8 6 0 12 7 12 16 0 9 -5 12 -12 8 -7 -5 -8 -3 -3 6 11 18 12
440 1 440 -5 0 -3 6 3 14 13 16 11 37 -4 48 -6 5 -6 8 2 8 11 0 12 24 1 36 -9
9 2 35 13 29 4 -3 1 11 -7 31 -8 19 -10 33 -5 29 9 -5 10 7 2 78 -1 10 -39 8
-93 -7z"/>
<path d="M5099 4268 c-12 -23 -11 -29 4 -27 6 1 20 1 31 0 15 -1 16 -4 7 -15
-9 -11 -9 -16 0 -22 7 -4 9 -3 6 3 -4 6 0 16 8 23 12 10 15 10 15 0 0 -8 3
-10 6 -7 12 11 43 -13 38 -28 -4 -8 -1 -15 5 -15 6 0 11 -5 11 -11 0 -5 -4 -8
-8 -5 -5 3 -8 -4 -7 -16 2 -26 -47 -117 -84 -157 -16 -17 -27 -31 -25 -31 2 0
-16 -19 -39 -43 -23 -24 -78 -83 -122 -131 -44 -49 -85 -94 -92 -101 -10 -10
-9 -16 2 -25 8 -7 15 -17 15 -22 0 -11 42 -72 53 -76 4 -2 7 -10 7 -18 0 -8 5
-14 12 -14 6 0 9 -3 5 -6 -3 -3 4 -15 15 -26 11 -11 17 -26 14 -33 -3 -10 0
-12 11 -8 11 4 14 2 9 -5 -4 -7 -3 -12 2 -12 5 0 15 -13 22 -29 6 -16 18 -32
26 -35 8 -3 11 -12 7 -22 -4 -12 -3 -15 5 -10 7 4 12 4 12 -1 0 -4 16 -25 35
-47 19 -21 32 -43 28 -49 -4 -6 0 -8 10 -4 12 4 17 1 17 -11 0 -13 2 -14 9 -3
6 9 10 10 12 2 3 -7 14 -13 27 -14 14 -1 22 -8 22 -19 0 -10 4 -18 9 -18 5 0
7 10 4 23 -3 16 -2 18 5 8 5 -7 16 -11 23 -9 8 3 20 -7 27 -21 7 -14 10 -18 7
-8 -8 28 5 41 21 20 13 -16 14 -16 8 0 -3 9 -1 17 5 17 6 0 11 -6 11 -12 0 -9
4 -8 10 2 9 14 14 7 11 -15 -1 -5 5 -2 12 7 8 10 17 15 20 11 4 -3 2 -12 -4
-19 -7 -8 -6 -14 2 -20 7 -4 9 -3 5 4 -3 6 -2 13 4 17 6 4 7 11 4 17 -4 6 -1
8 7 6 8 -3 13 -12 11 -19 -2 -11 1 -11 10 1 14 17 128 24 128 8 0 -5 6 -6 13
-1 19 12 41 9 52 -5 8 -10 11 -4 13 24 3 32 1 36 -18 31 -11 -3 -20 -1 -20 5
0 5 -9 6 -20 3 -12 -4 -20 -2 -20 5 0 6 -6 10 -12 7 -19 -6 -145 89 -134 101
2 2 -9 17 -25 35 -16 17 -29 37 -29 44 0 7 -4 13 -8 13 -8 0 -72 85 -72 96 0
3 -11 17 -25 32 -14 15 -25 32 -25 39 0 6 -4 13 -8 15 -12 4 -122 156 -122
167 0 5 -4 11 -9 13 -15 5 -18 43 -3 40 6 -1 11 1 11 5 -3 20 2 34 11 28 6 -3
10 0 10 8 0 14 159 171 161 159 1 -4 1 -11 0 -15 -1 -5 3 -5 9 -2 6 4 9 9 6
12 -8 9 14 44 23 38 5 -3 12 2 15 10 3 9 16 20 28 25 13 6 41 21 63 34 22 13
43 22 48 19 4 -2 7 1 7 6 0 6 9 11 19 11 11 0 26 7 35 15 19 20 27 19 20 -2
-5 -17 -5 -17 6 0 6 9 15 15 20 12 5 -3 11 -1 15 5 3 5 19 10 36 10 24 0 29 4
29 23 l0 22 -281 0 c-254 0 -282 -1 -290 -17z"/>
<path d="M5610 4209 c0 -5 5 -7 10 -4 6 3 10 8 10 11 0 2 -4 4 -10 4 -5 0 -10
-5 -10 -11z"/>
<path d="M1256 4148 c3 -4 11 -5 19 -1 21 7 19 12 -4 10 -11 0 -18 -5 -15 -9z"/>
<path d="M3125 4130 c-3 -6 1 -7 9 -4 18 7 21 14 7 14 -6 0 -13 -4 -16 -10z"/>
<path d="M5395 4120 c-4 -6 -11 -7 -17 -4 -7 4 -8 2 -4 -5 6 -9 11 -9 22 0 14
11 18 19 10 19 -3 0 -8 -5 -11 -10z"/>
<path d="M1156 4108 c3 -5 10 -6 15 -3 13 9 11 12 -6 12 -8 0 -12 -4 -9 -9z"/>
<path d="M6570 4106 c7 -7 13 -7 20 0 6 6 3 10 -10 10 -13 0 -16 -4 -10 -10z"/>
<path d="M3875 4041 c-3 -5 -2 -12 3 -15 5 -3 9 1 9 9 0 17 -3 19 -12 6z"/>
<path d="M5191 3954 c0 -11 3 -14 6 -6 3 7 2 16 -1 19 -3 4 -6 -2 -5 -13z"/>
<path d="M5140 3916 c0 -2 7 -7 16 -10 8 -3 12 -2 9 4 -6 10 -25 14 -25 6z"/>
<path d="M173 3655 c0 -8 4 -12 9 -9 5 3 6 10 3 15 -9 13 -12 11 -12 -6z"/>
<path d="M7555 3650 c-3 -6 1 -7 9 -4 18 7 21 14 7 14 -6 0 -13 -4 -16 -10z"/>
<path d="M440 3530 c8 -5 20 -10 25 -10 6 0 3 5 -5 10 -8 5 -19 10 -25 10 -5
0 -3 -5 5 -10z"/>
<path d="M7210 3489 c0 -5 5 -7 10 -4 6 3 10 8 10 11 0 2 -4 4 -10 4 -5 0 -10
-5 -10 -11z"/>
<path d="M906 3312 c-3 -5 1 -9 9 -9 8 0 15 4 15 9 0 4 -4 8 -9 8 -6 0 -12 -4
-15 -8z"/>
<path d="M6836 3308 c3 -5 10 -6 15 -3 13 9 11 12 -6 12 -8 0 -12 -4 -9 -9z"/>
<path d="M6756 3288 c3 -5 10 -6 15 -3 13 9 11 12 -6 12 -8 0 -12 -4 -9 -9z"/>
<path d="M1130 3210 c0 -5 5 -10 11 -10 5 0 7 5 4 10 -3 6 -8 10 -11 10 -2 0
-4 -4 -4 -10z"/>
<path d="M3481 3186 c-8 -10 -9 -16 -1 -21 6 -4 9 -1 8 7 -2 7 3 12 10 10 8
-1 11 2 7 8 -8 13 -10 13 -24 -4z"/>
<path d="M4030 3195 c0 -5 5 -17 10 -25 5 -8 10 -10 10 -5 0 6 -5 17 -10 25
-5 8 -10 11 -10 5z"/>
<path d="M4590 3193 c0 -6 8 -17 18 -24 16 -13 16 -13 2 6 -8 11 -16 22 -17
24 -2 2 -3 0 -3 -6z"/>
<path d="M5466 3192 c-3 -5 1 -9 9 -9 8 0 12 4 9 9 -3 4 -7 8 -9 8 -2 0 -6 -4
-9 -8z"/>
<path d="M6480 3170 c-9 -6 -10 -10 -3 -10 6 0 15 5 18 10 8 12 4 12 -15 0z"/>
<path d="M2266 2828 c3 -5 10 -6 15 -3 13 9 11 12 -6 12 -8 0 -12 -4 -9 -9z"/>
<path d="M2189 2813 c-13 -16 -12 -17 4 -4 16 13 21 21 13 21 -2 0 -10 -8 -17
-17z"/>
</g>
</svg>
