<?xml version="1.0" standalone="no"?>
<!DOCTYPE svg PUBLIC "-//W3C//DTD SVG 20010904//EN"
 "http://www.w3.org/TR/2001/REC-SVG-20010904/DTD/svg10.dtd">
<svg version="1.0" xmlns="http://www.w3.org/2000/svg"
 width="372.000000pt" height="372.000000pt" viewBox="0 0 372.000000 372.000000"
 preserveAspectRatio="xMidYMid meet">
<metadata>
Created by potrace 1.11, written by Peter Selinger 2001-2013
</metadata>
<g transform="translate(0.000000,372.000000) scale(0.100000,-0.100000)"
fill="#000000" stroke="none">
<path d="M2737 2890 c-15 -5 -42 -11 -60 -14 -35 -5 -70 -13 -95 -20 -9 -3
-37 -8 -62 -11 -24 -4 -48 -8 -51 -11 -4 -2 -24 -6 -45 -10 -49 -7 -54 -11
-54 -33 0 -11 17 -27 44 -41 30 -15 49 -33 57 -54 15 -37 21 -1376 7 -1376 -5
0 -7 -4 -4 -9 11 -17 -14 -65 -50 -99 -20 -18 -34 -38 -32 -44 3 -9 64 -13
234 -13 126 -1 235 1 242 3 6 2 12 9 12 16 0 13 -35 46 -49 46 -11 0 -32 52
-39 95 -3 17 -6 373 -6 793 -1 419 -4 762 -8 762 -4 0 -5 7 -2 15 7 17 2 17
-39 5z"/>
<path d="M280 2801 c0 -6 -7 -8 -16 -4 -12 4 -15 0 -12 -18 2 -19 9 -23 38
-24 49 0 93 -21 112 -53 18 -31 34 -109 34 -165 -1 -20 2 -37 6 -37 4 0 4 -10
-1 -22 -5 -13 -5 -32 -1 -43 4 -11 3 -28 -2 -39 -7 -14 -7 -16 2 -11 9 6 9 3
1 -13 -6 -12 -8 -23 -4 -25 9 -6 8 -119 -1 -142 -3 -8 -2 -16 2 -19 4 -3 6
-31 4 -63 -4 -78 -4 -74 1 -110 2 -18 0 -33 -5 -33 -5 0 -5 -7 0 -17 5 -9 6
-29 2 -44 -5 -15 -6 -29 -4 -32 8 -8 11 -67 4 -67 -7 0 -7 -21 0 -40 6 -15 4
-79 -2 -102 -3 -16 -4 -28 0 -28 4 0 7 -16 7 -35 0 -19 -2 -35 -5 -35 -3 0 -5
-11 -5 -25 0 -14 4 -25 8 -25 5 0 6 -4 3 -9 -3 -4 -8 -39 -11 -77 -4 -60 -14
-122 -29 -199 -26 -125 -109 -274 -192 -343 -22 -17 -47 -38 -57 -47 -9 -8
-20 -16 -25 -16 -6 -1 -70 -29 -80 -35 -2 -1 1 -11 7 -22 9 -17 16 -19 40 -12
16 4 32 6 35 2 3 -3 6 -1 6 4 0 6 10 10 23 11 33 2 66 10 127 34 30 11 61 21
68 22 6 0 12 4 12 9 0 4 6 8 14 8 7 0 30 11 50 25 20 13 36 22 36 19 0 -3 6 1
14 8 26 24 56 48 62 48 9 0 70 69 103 115 38 54 83 135 75 135 -4 0 -2 6 4 13
20 25 49 153 57 252 2 22 4 40 5 40 1 0 2 245 2 544 1 438 3 549 14 570 8 14
14 31 14 36 0 32 109 96 152 90 21 -4 33 25 16 37 -13 8 -45 12 -63 8 -24 -6
-52 -5 -75 1 -14 3 -35 2 -48 -2 -15 -6 -22 -5 -22 3 0 9 -3 9 -11 1 -6 -6
-23 -8 -43 -3 -19 4 -40 4 -48 -1 -7 -4 -20 -4 -27 0 -7 5 -27 5 -45 1 -17 -4
-40 -4 -51 0 -11 4 -23 6 -28 3 -12 -7 -224 -6 -236 1 -6 4 -11 3 -11 -3z"/>
<path d="M1455 2243 c-27 -7 -61 -16 -75 -19 -26 -5 -50 -10 -87 -19 -44 -10
-68 -15 -103 -22 -19 -4 -37 -8 -40 -9 -3 -1 -15 -5 -26 -9 -32 -10 -19 -40
31 -72 72 -45 72 -44 69 -428 -2 -187 -4 -349 -4 -359 -2 -40 -53 -112 -71
-100 -7 4 -20 -36 -14 -45 1 -3 110 -6 242 -6 231 0 238 1 238 20 0 11 -10 24
-22 30 -33 14 -64 78 -66 135 -1 27 -6 50 -11 50 -5 0 -4 6 3 13 8 10 7 17 -1
25 -7 7 -8 12 -2 12 5 0 8 26 6 57 -3 78 -3 72 0 126 2 26 -1 47 -5 47 -5 0
-5 5 -1 12 9 14 10 69 1 91 -3 9 -2 19 3 22 6 3 5 16 0 31 -6 14 -7 23 -2 21
4 -3 7 10 7 29 0 19 -4 34 -8 34 -5 0 -5 5 -1 11 11 18 10 109 -1 109 -7 0 -7
3 0 8 12 9 14 72 2 72 -4 0 -5 6 -1 12 12 19 12 48 1 48 -6 0 -6 5 -1 13 12
15 11 38 -1 57 -9 14 -17 14 -60 3z"/>
<path d="M1810 2241 c-63 -22 -125 -56 -171 -94 -42 -35 -47 -48 -24 -71 13
-13 20 -13 48 -2 56 22 133 8 179 -33 62 -54 62 -57 63 -391 1 -168 -2 -323
-7 -345 -10 -44 -54 -109 -69 -100 -9 6 -10 3 -13 -32 -1 -16 17 -18 229 -18
127 -1 236 1 243 3 21 7 13 24 -28 60 -23 19 -39 37 -36 40 3 2 0 14 -6 26 -9
15 -13 118 -14 342 -2 416 -9 463 -72 543 -33 40 -75 66 -126 77 -54 12 -154
9 -196 -5z"/>
<path d="M3081 2230 c-9 -6 1 -42 12 -41 45 5 71 -2 92 -25 14 -15 22 -34 19
-45 -2 -10 -6 -29 -9 -40 -6 -28 -84 -149 -96 -149 -5 0 -9 -5 -9 -11 0 -6
-27 -39 -59 -73 -221 -229 -211 -212 -170 -273 19 -26 32 -49 31 -51 -1 -1 7
-12 18 -25 11 -12 40 -51 64 -87 125 -191 163 -230 231 -245 17 -4 118 -8 225
-8 186 -2 195 -1 195 17 0 15 -12 22 -52 31 -64 15 -122 52 -160 102 -15 21
-33 44 -40 51 -7 7 -20 26 -30 42 -9 17 -21 30 -25 30 -4 0 -8 6 -8 14 0 8 -3
16 -8 18 -6 2 -109 143 -155 211 -6 11 -29 42 -49 70 -21 28 -38 53 -38 56 0
5 16 24 99 116 25 28 68 67 134 122 53 44 150 102 168 99 4 -1 15 7 25 16 11
9 21 16 24 16 3 0 34 6 69 13 59 12 83 30 67 47 -8 8 -553 10 -565 2z"/>
</g>
</svg>
